SplineFontDB: 2.0
FontName: Templier
FullName: Code Templier
FamilyName: Templier
Weight: Book
Copyright: Meute Waingunga, tienne Bersac
Version: 001.000
ItalicAngle: 0
UnderlinePosition: -125
UnderlineWidth: 50
Ascent: 800
Descent: 200
Order2: 1
NeedsXUIDChange: 1
XUID: [1021 449 1678889752 8635195]
FSType: 0
OS2Version: 0
OS2_WeightWidthSlopeOnly: 0
OS2_UseTypoMetrics: 1
CreationTime: 910306758
ModificationTime: 1207501479
PfmFamily: 81
TTFWeight: 400
TTFWidth: 5
LineGap: 9
VLineGap: 0
Panose: 0 0 0 0 0 0 0 0 0 0
OS2TypoAscent: -50
OS2TypoAOffset: 1
OS2TypoDescent: 30
OS2TypoDOffset: 1
OS2TypoLinegap: 30
OS2WinAscent: 0
OS2WinAOffset: 1
OS2WinDescent: 0
OS2WinDOffset: 1
HheadAscent: 0
HheadAOffset: 1
HheadDescent: 0
HheadDOffset: 1
OS2SubXSize: 100
OS2SubYSize: 100
OS2SubXOff: 0
OS2SubYOff: 140
OS2SupXSize: 100
OS2SupYSize: 100
OS2SupXOff: 0
OS2SupYOff: 140
OS2StrikeYSize: 50
OS2StrikeYPos: 250
OS2Vendor: 'pyrs'
OS2UnicodeRanges: 80000000.00000000.00000000.00000000
DEI: 0
TtfTable: prep 12
\,ZLZ\c;^1!rrQV
EndTtf
TtfTable: fpgm 339
\,ZL[9=Os.:fst'!KL<m!WRk`!/)B'!!rW-?X>=o!!+Vn+@U!4YQ8,`\,ZR]\,ZOZ+YC2(""YQa
YQH1@;HP/H+Gq;!8S!]$7NcAQA?Z1_7NcAQA5ZMSAVsVD+KtiE=D8n^!*!&DYWu>1BcsV[<*1<J
5\4)$3\@iA"=tZbYQQ7A;HP0$=Wg0VC11YW"=6M[C11XN=<i]+0E!K4!!OoH+Ktqp:fpRsY^f+\
YWtTZ)^-@I7BjR(=KoS/)^/?e/[tcb/0H'(Bgf0+?m$R\I;'NdYQ8,`\,Zab\,Z^_/[tcd/5%+i
""$rKY^d[s5Zru%+Ktqp;cp7*-6]V/MM`@1,?Z.n""$rK,9aPt!/cXQMBc7H\,ZUX;cp7+,t5<E
5YtQ-+h.P<,9\#1"!pA\+X8.5)^/?P/[tce/5&oD778(<+^$As
EndTtf
TtfTable: cvt  12
!VZQo!!!!"s8Duu
EndTtf
TtfTable: maxp 32
!!*'"!&ssV!!iQ)!!!!#z!"&]+!WW7"!!!!"
EndTtf
LangName: 1033 "" "" "none" "FONTLAB30:TTEXPORT" "" "001.000" 
Encoding: Mac
UnicodeInterp: none
NameList: Adobe Glyph List
DisplaySize: -24
AntiAlias: 1
FitToEm: 1
WinInfo: 64 16 4
Grid
-1000 249 m 0,0,-1
 2000 249 l 0
-1000 502 m 0,2,-1
 2000 502 l 0
-1000 400 m 0,4,-1
 2000 400 l 0
EndSplineSet

StartChar: A
Encoding: 65 65 2
Width: 600
Flags: W
Validated: 1
Fore
400 100 m 1,0,-1
 400 500 l 1,1,-1
 500 500 l 1,2,-1
 500 0 l 1,3,-1
 400 0 l 1,4,-1
 0 0 l 1,5,-1
 0 100 l 1,6,-1
 400 100 l 1,0,-1
EndSplineSet
EndChar
StartChar: B
Encoding: 66 66 3
Width: 600
Flags: W
Validated: 5
Fore
500 0 m 1,0,-1
 500 500 l 1,1,-1
 400 500 l 1,2,-1
 400 100 l 1,3,-1
 400 100 l 1,4,-1
 101.999 99.9941 l 1,5,-1
 102 499 l 1,6,-1
 2 499 l 1,7,-1
 2 -1 l 1,8,-1
 500 0 l 1,0,-1
EndSplineSet
EndChar
StartChar: C
Encoding: 67 67 4
Width: 597
Flags: W
Validated: 5
Fore
3 499 m 1,0,-1
 3 -1 l 1,1,-1
 103 -1 l 1,2,-1
 103 499 l 1,3,-1
 3 499 l 1,0,-1
101 100 m 1,4,-1
 101 0 l 1,5,-1
 500 0 l 1,6,-1
 500 100 l 1,7,-1
 101 100 l 1,4,-1
EndSplineSet
EndChar
StartChar: D
Encoding: 68 68 5
Width: 600
Flags: W
Validated: 5
Fore
400 500 m 1,0,-1
 400 0 l 1,1,-1
 500 0 l 1,2,-1
 500 500 l 1,3,-1
 400 500 l 1,0,-1
0 500 m 1,4,-1
 0 400 l 1,5,-1
 500 400 l 1,6,-1
 500 500 l 1,7,-1
 0 500 l 1,4,-1
0 100 m 1,8,-1
 0 0 l 1,9,-1
 400 0 l 1,10,-1
 400 100 l 1,11,-1
 0 100 l 1,8,-1
EndSplineSet
EndChar
StartChar: E
Encoding: 69 69 6
Width: 600
Flags: W
Validated: 37
Fore
399 503 m 1,0,-1
 399 3 l 1,1,-1
 499 3 l 1,2,-1
 499 503 l 1,3,-1
 399 503 l 1,0,-1
1 502 m 1,4,-1
 1 2 l 1,5,-1
 101 2 l 1,6,-1
 101 502 l 1,7,-1
 1 502 l 1,4,-1
99 103 m 1,8,-1
 99 3 l 1,9,-1
 399 3 l 1,10,11
 399 46 399 46 399 62 c 256,12,13
 399 78 399 78 399 79 c 1,14,15
 399 67 l 2,16,17
 399 56 399 56 398.5 43 c 128,-1,18
 398 30 398 30 398 19 c 0,19,20
 398 9 398 9 398 11 c 0,21,22
 398 14 398 14 398 34 c 0,23,24
 398 55 398 55 398 102 c 1,25,-1
 99 103 l 1,8,-1
101 501 m 1,26,-1
 101 401 l 1,27,-1
 401 401 l 1,28,29
 401 444 401 444 401 460 c 256,30,31
 401 476 401 476 401 477 c 1,32,33
 401 465 l 2,34,35
 401 454 401 454 400.5 441 c 128,-1,36
 400 428 400 428 400 417 c 0,37,38
 400 407 400 407 400 409 c 0,39,40
 400 412 400 412 400 432 c 0,41,42
 400 453 400 453 400 500 c 1,43,-1
 101 501 l 1,26,-1
EndSplineSet
EndChar
StartChar: F
Encoding: 70 70 7
Width: 603
Flags: W
Validated: 37
Fore
2 501 m 1,0,1
 2 438 2 438 2.5 392.5 c 128,-1,2
 3 347 3 347 3 311 c 256,3,4
 3 275 3 275 3 243 c 0,5,6
 3 212 3 212 3 177 c 0,7,8
 3 143 3 143 2.5 101 c 128,-1,9
 2 59 2 59 2 1 c 1,10,-1
 102 1 l 1,11,12
 99 69 99 69 98.5 123 c 128,-1,13
 98 177 98 177 98.5 232 c 128,-1,14
 99 287 99 287 100 350.5 c 128,-1,15
 101 414 101 414 102 501 c 1,16,-1
 2 501 l 1,0,1
100 501 m 1,17,-1
 100 401 l 1,18,-1
 500 401 l 1,19,-1
 500 501 l 1,20,-1
 100 501 l 1,17,-1
100 100 m 1,21,-1
 100 1 l 1,22,23
 103 1 103 1 126 1 c 0,24,25
 150 1 150 1 186 1 c 256,26,27
 222 1 222 1 266 0.5 c 128,-1,28
 310 0 310 0 353 0 c 0,29,30
 397 0 397 0 435 0 c 0,31,32
 474 0 474 0 500 0 c 1,33,-1
 500 100 l 1,34,-1
 100 100 l 1,21,-1
EndSplineSet
EndChar
StartChar: G
Encoding: 71 71 8
Width: 597
Flags: W
Validated: 5
Fore
401 502 m 1,0,-1
 401 2 l 1,1,-1
 501 2 l 1,2,-1
 501 502 l 1,3,-1
 401 502 l 1,0,-1
3 500 m 1,4,-1
 3 400 l 1,5,6
 8 400 8 400 38 400.5 c 128,-1,7
 68 401 68 401 110 401 c 0,8,9
 153 401 153 401 202 401 c 256,10,11
 251 401 251 401 293 401 c 0,12,13
 336 401 336 401 366.5 400.5 c 128,-1,14
 397 400 397 400 403 400 c 1,15,-1
 403 500 l 1,16,-1
 3 500 l 1,4,-1
EndSplineSet
EndChar
StartChar: H
Encoding: 72 72 9
Width: 500
Flags: W
Validated: 37
Fore
399 500 m 1,0,-1
 399 0 l 1,1,-1
 499 0 l 1,2,-1
 499 500 l 1,3,-1
 399 500 l 1,0,-1
1 499 m 1,4,-1
 1 -1 l 1,5,-1
 101 -1 l 1,6,-1
 101 499 l 1,7,-1
 1 499 l 1,4,-1
102 496 m 1,8,9
 102 449 102 449 102 429 c 256,10,11
 102 409 102 409 102 406 c 0,12,13
 102 404 102 404 102.5 414.5 c 128,-1,14
 103 425 103 425 103 438 c 0,15,16
 103 452 103 452 103.5 463.5 c 0,17,18
 104 474 104 474 104 475 c 1,19,-1
 104 458 l 2,20,21
 104 441 104 441 104 398 c 1,22,-1
 404 398 l 1,23,-1
 404 498 l 1,24,-1
 102 496 l 1,8,9
EndSplineSet
EndChar
StartChar: I
Encoding: 73 73 10
Width: 500
Flags: W
Validated: 37
Fore
1 500 m 1,0,1
 1 435 1 435 1 386 c 256,2,3
 1 337 1 337 1.5 297 c 128,-1,4
 2 257 2 257 2 223 c 256,5,6
 2 189 2 189 1.5 154 c 128,-1,7
 1 119 1 119 1 81 c 256,8,9
 1 43 1 43 0 -5 c 1,10,11
 10 -3 10 -3 23.5 -2.5 c 128,-1,12
 37 -2 37 -2 51 -2 c 256,13,14
 65 -2 65 -2 78 -2.5 c 128,-1,15
 91 -3 91 -3 99 -3 c 1,16,17
 99 54 99 54 99 95 c 0,18,19
 99 137 99 137 99 172 c 256,20,21
 99 207 99 207 99.5 239 c 128,-1,22
 100 271 100 271 100 308 c 256,23,24
 100 345 100 345 100 391 c 256,25,26
 100 437 100 437 100 500 c 1,27,-1
 1 500 l 1,0,1
99 497 m 1,28,29
 99 450 99 450 99 430 c 256,30,31
 99 410 99 410 99 407 c 0,32,33
 99 405 99 405 99.5 415 c 128,-1,34
 100 425 100 425 100 438 c 0,35,36
 100 452 100 452 100 463 c 0,37,38
 100 475 100 475 100.5 474.5 c 128,-1,39
 101 474 101 474 101.5 456.5 c 128,-1,40
 102 439 102 439 102 396 c 1,41,42
 107 396 107 396 137.5 396.5 c 128,-1,43
 168 397 168 397 210 397 c 256,44,45
 252 397 252 397 301 398 c 128,-1,46
 350 399 350 399 392 399 c 256,47,48
 434 399 434 399 464.5 399.5 c 128,-1,49
 495 400 495 400 500 400 c 1,50,-1
 500 500 l 1,51,-1
 99 497 l 1,28,29
EndSplineSet
EndChar
StartChar: J
Encoding: 74 74 11
Width: 500
Flags: W
Validated: 37
Fore
263.988 311.999 m 156,-1,1
 329.455 309 329.455 309 329 245 c 28,2,3
 328.467 170.002 328.467 170.002 263 173 c 156,-1,4
 197.467 176.002 197.467 176.002 198 251 c 28,5,0
 198.455 315.001 198.455 315.001 263.988 311.999 c 156,-1,1
402 500 m 1,6,-1
 402 0 l 1,7,-1
 502 0 l 1,8,-1
 502 500 l 1,9,-1
 402 500 l 1,6,-1
2 100 m 1,10,-1
 2 0 l 1,11,-1
 402 0 l 1,12,-1
 402 100 l 1,13,-1
 2 100 l 1,10,-1
EndSplineSet
EndChar
StartChar: K
Encoding: 75 75 12
Width: 500
Flags: W
Validated: 37
Fore
263.988 311.999 m 156,-1,1
 329.455 309 329.455 309 329 245 c 28,2,3
 328.467 170.002 328.467 170.002 263 173 c 156,-1,4
 197.467 176.002 197.467 176.002 198 251 c 28,5,0
 198.455 315.001 198.455 315.001 263.988 311.999 c 156,-1,1
399 500 m 1,6,-1
 399 0 l 1,7,-1
 499 0 l 1,8,-1
 499 500 l 1,9,-1
 399 500 l 1,6,-1
1 499 m 1,10,-1
 1 -1 l 1,11,-1
 101 -1 l 1,12,-1
 101 499 l 1,13,-1
 1 499 l 1,10,-1
99 100 m 1,14,-1
 99 0 l 1,15,-1
 399 0 l 1,16,-1
 399 100 l 1,17,-1
 99 100 l 1,14,-1
EndSplineSet
EndChar
StartChar: L
Encoding: 76 76 13
Width: 500
Flags: W
Validated: 37
Fore
263.988 311.999 m 156,-1,1
 329.455 309 329.455 309 329 245 c 28,2,3
 328.467 170.002 328.467 170.002 263 173 c 156,-1,4
 197.467 176.002 197.467 176.002 198 251 c 28,5,0
 198.455 315.001 198.455 315.001 263.988 311.999 c 156,-1,1
-1 499 m 1,6,-1
 -1 -1 l 1,7,-1
 99 -1 l 1,8,-1
 99 499 l 1,9,-1
 -1 499 l 1,6,-1
97 100 m 1,10,-1
 97 0 l 1,11,-1
 496 0 l 1,12,-1
 496 100 l 1,13,-1
 97 100 l 1,10,-1
EndSplineSet
EndChar
StartChar: M
Encoding: 77 77 14
Width: 500
Flags: W
Validated: 37
Fore
263.988 311.999 m 156,-1,1
 329.455 309 329.455 309 329 245 c 28,2,3
 328.467 170.002 328.467 170.002 263 173 c 156,-1,4
 197.467 176.002 197.467 176.002 198 251 c 28,5,0
 198.455 315.001 198.455 315.001 263.988 311.999 c 156,-1,1
404 500 m 1,6,-1
 404 0 l 1,7,-1
 504 0 l 1,8,-1
 504 500 l 1,9,-1
 404 500 l 1,6,-1
4 500 m 1,10,-1
 4 400 l 1,11,-1
 504 400 l 1,12,-1
 504 500 l 1,13,-1
 4 500 l 1,10,-1
4 100 m 1,14,-1
 4 0 l 1,15,-1
 404 0 l 1,16,-1
 404 100 l 1,17,-1
 4 100 l 1,14,-1
404 500 m 1,18,-1
 404 0 l 1,19,-1
 504 0 l 1,20,-1
 504 500 l 1,21,-1
 404 500 l 1,18,-1
4 500 m 1,22,-1
 4 400 l 1,23,-1
 504 400 l 1,24,-1
 504 500 l 1,25,-1
 4 500 l 1,22,-1
4 100 m 1,26,-1
 4 0 l 1,27,-1
 404 0 l 1,28,-1
 404 100 l 1,29,-1
 4 100 l 1,26,-1
EndSplineSet
EndChar
StartChar: N
Encoding: 78 78 15
Width: 500
Flags: W
Validated: 2085
Fore
263.988 311.999 m 156,-1,1
 329.455 309 329.455 309 329 245 c 28,2,3
 328.467 170.002 328.467 170.002 263 173 c 156,-1,4
 197.467 176.002 197.467 176.002 198 251 c 28,5,0
 198.455 315.001 198.455 315.001 263.988 311.999 c 156,-1,1
400 500 m 1,6,-1
 400 0 l 1,7,-1
 500 0 l 1,8,-1
 500 500 l 1,9,-1
 400 500 l 1,6,-1
2 499 m 1,10,-1
 2 -1 l 1,11,-1
 102 -1 l 1,12,-1
 102 499 l 1,13,-1
 2 499 l 1,10,-1
100 100 m 1,14,-1
 100 0 l 1,15,-1
 400 0 l 1,16,17
 400 43 400 43 400 59 c 256,18,19
 400 75 400 75 400 76 c 1,20,-1
 400 64 l 2,21,22
 400 53 400 53 399.5 40 c 128,-1,23
 399 27 399 27 399 16 c 0,24,25
 399 6 399 6 399 8 c 0,26,27
 399 11 399 11 399 31 c 0,28,29
 399 52 399 52 399 99 c 1,30,-1
 100 100 l 1,14,-1
102 498 m 1,31,-1
 102 398 l 1,32,-1
 402 398 l 1,33,34
 402 441 402 441 402 457 c 256,35,36
 402 473 402 473 402 474 c 1,37,-1
 402 462 l 2,38,39
 402 451 402 451 401.5 438 c 128,-1,40
 401 425 401 425 401 414 c 0,41,42
 401 404 401 404 401 406 c 0,43,44
 401 409 401 409 401 429 c 0,45,46
 401 450 401 450 401 497 c 1,47,-1
 102 498 l 1,31,-1
400 500 m 1,48,-1
 400 0 l 1,49,-1
 500 0 l 1,50,-1
 500 500 l 1,51,-1
 400 500 l 1,48,-1
2 499 m 1,52,-1
 2 -1 l 1,53,-1
 102 -1 l 1,54,-1
 102 499 l 1,55,-1
 2 499 l 1,52,-1
100 100 m 1,56,-1
 100 0 l 1,57,-1
 400 0 l 1,58,59
 400 43 400 43 400 59 c 256,60,61
 400 75 400 75 400 76 c 1,62,-1
 400 64 l 2,63,64
 400 53 400 53 399.5 40 c 128,-1,65
 399 27 399 27 399 16 c 0,66,67
 399 6 399 6 399 8 c 0,68,69
 399 11 399 11 399 31 c 0,70,71
 399 52 399 52 399 99 c 1,72,-1
 100 100 l 1,56,-1
102 498 m 1,73,-1
 102 398 l 1,74,-1
 402 398 l 1,75,76
 402 441 402 441 402 457 c 256,77,78
 402 473 402 473 402 474 c 1,79,-1
 402 462 l 2,80,81
 402 451 402 451 401.5 438 c 128,-1,82
 401 425 401 425 401 414 c 0,83,84
 401 404 401 404 401 406 c 0,85,86
 401 409 401 409 401 429 c 0,87,88
 401 450 401 450 401 497 c 1,89,-1
 102 498 l 1,73,-1
EndSplineSet
EndChar
StartChar: O
Encoding: 79 79 16
Width: 500
Flags: W
Validated: 37
Fore
263.988 311.999 m 156,-1,1
 329.455 309 329.455 309 329 245 c 28,2,3
 328.467 170.002 328.467 170.002 263 173 c 156,-1,4
 197.467 176.002 197.467 176.002 198 251 c 28,5,0
 198.455 315.001 198.455 315.001 263.988 311.999 c 156,-1,1
3 500 m 1,6,7
 3 437 3 437 3.5 391.5 c 128,-1,8
 4 346 4 346 4 310 c 256,9,10
 4 274 4 274 4 242 c 0,11,12
 4 211 4 211 4 176 c 0,13,14
 4 142 4 142 3.5 100 c 128,-1,15
 3 58 3 58 3 0 c 1,16,-1
 103 0 l 1,17,18
 100 68 100 68 99.5 122 c 128,-1,19
 99 176 99 176 99.5 231 c 128,-1,20
 100 286 100 286 101 349.5 c 128,-1,21
 102 413 102 413 103 500 c 1,22,-1
 3 500 l 1,6,7
101 500 m 1,23,-1
 101 400 l 1,24,-1
 501 400 l 1,25,-1
 501 500 l 1,26,-1
 101 500 l 1,23,-1
101 99 m 1,27,-1
 101 0 l 1,28,29
 106 0 106 0 136 0 c 0,30,31
 167 0 167 0 209 0 c 0,32,33
 252 0 252 0 301 -0.5 c 128,-1,34
 350 -1 350 -1 392 -1 c 0,35,36
 435 -1 435 -1 465 -1 c 0,37,38
 496 -1 496 -1 501 -1 c 1,39,-1
 501 99 l 1,40,-1
 101 99 l 1,27,-1
EndSplineSet
EndChar
StartChar: P
Encoding: 80 80 17
Width: 500
Flags: W
Validated: 37
Fore
263.988 311.999 m 156,-1,1
 329.455 309 329.455 309 329 245 c 28,2,3
 328.467 170.002 328.467 170.002 263 173 c 156,-1,4
 197.467 176.002 197.467 176.002 198 251 c 28,5,0
 198.455 315.001 198.455 315.001 263.988 311.999 c 156,-1,1
402 502 m 1,6,-1
 402 2 l 1,7,-1
 502 2 l 1,8,-1
 502 502 l 1,9,-1
 402 502 l 1,6,-1
4 500 m 1,10,-1
 4 400 l 1,11,12
 9 400 9 400 39 400.5 c 128,-1,13
 69 401 69 401 111 401 c 0,14,15
 154 401 154 401 203 401 c 256,16,17
 252 401 252 401 294 401 c 0,18,19
 337 401 337 401 367.5 400.5 c 128,-1,20
 398 400 398 400 404 400 c 1,21,-1
 404 500 l 1,22,-1
 4 500 l 1,10,-1
EndSplineSet
EndChar
StartChar: Q
Encoding: 81 81 18
Width: 500
Flags: W
Validated: 37
Fore
263.988 311.999 m 4,0,1
 329.003 309.021 329.003 309.021 329.003 245.881 c 0,2,3
 328.89 172.976 328.89 172.976 267.937 172.885 c 0,4,5
 265.516 172.885 265.516 172.885 263 173 c 4,6,7
 197.996 175.978 197.996 175.978 197.996 249.795 c 0,8,9
 197.996 312.133 197.996 312.133 258.246 312.133 c 0,10,11
 261.052 312.133 261.052 312.133 263.988 311.999 c 4,0,1
400 500 m 1,12,13
 400 437 400 437 400 391 c 0,14,15
 400 346 400 346 400 310 c 0,16,17
 400 275 400 275 399.5 244.5 c 128,-1,18
 399 214 399 214 399 180 c 256,19,20
 399 146 399 146 399 104 c 0,21,22
 399 63 399 63 399 6 c 1,23,-1
 499 6 l 1,24,-1
 499 506 l 1,25,-1
 400 500 l 1,12,13
1 505 m 1,26,-1
 1 5 l 1,27,-1
 101 5 l 1,28,29
 101 62 101 62 101 103 c 256,30,31
 101 144 101 144 101 178 c 256,32,33
 101 212 101 212 100.5 243 c 128,-1,34
 100 274 100 274 100 310 c 256,35,36
 100 346 100 346 100 391 c 0,37,38
 100 437 100 437 100 500 c 1,39,-1
 1 505 l 1,26,-1
102 502 m 1,40,41
 102 455 102 455 102 435 c 256,42,43
 102 415 102 415 102 412 c 0,44,45
 102 410 102 410 102.5 420.5 c 128,-1,46
 103 431 103 431 103 444 c 0,47,48
 103 458 103 458 103.5 469.5 c 0,49,50
 104 480 104 480 104 481 c 1,51,-1
 104 464 l 2,52,53
 104 447 104 447 104 404 c 1,54,-1
 404 404 l 1,55,56
 404 447 404 447 404 463 c 256,57,58
 404 479 404 479 404 480 c 1,59,60
 405 480 405 480 405.5 468.5 c 128,-1,61
 406 457 406 457 406.5 444 c 128,-1,62
 407 431 407 431 407.5 421 c 128,-1,63
 408 411 408 411 408.5 413.5 c 128,-1,64
 409 416 409 416 409 436 c 0,65,66
 409 457 409 457 409 504 c 1,67,-1
 102 502 l 1,40,41
EndSplineSet
EndChar
StartChar: R
Encoding: 82 82 19
Width: 500
Flags: W
Validated: 37
Fore
263.988 311.999 m 156,-1,1
 329.455 309 329.455 309 329 245 c 28,2,3
 328.467 170.002 328.467 170.002 263 173 c 156,-1,4
 197.467 176.002 197.467 176.002 198 251 c 28,5,0
 198.455 315.001 198.455 315.001 263.988 311.999 c 156,-1,1
-1 504 m 1,6,7
 -1 439 -1 439 -1 390 c 256,8,9
 -1 341 -1 341 -0.5 301 c 128,-1,10
 0 261 0 261 0 227 c 256,11,12
 0 193 0 193 -0.5 158 c 128,-1,13
 -1 123 -1 123 -1 85 c 256,14,15
 -1 47 -1 47 -2 -1 c 1,16,17
 8 1 8 1 21.5 1.5 c 128,-1,18
 35 2 35 2 49 2 c 256,19,20
 63 2 63 2 76 1.5 c 128,-1,21
 89 1 89 1 97 1 c 1,22,23
 97 58 97 58 97 99 c 0,24,25
 97 141 97 141 97 176 c 256,26,27
 97 211 97 211 97.5 243 c 128,-1,28
 98 275 98 275 98 312 c 256,29,30
 98 349 98 349 98 395 c 256,31,32
 98 441 98 441 98 504 c 1,33,-1
 -1 504 l 1,6,7
97 501 m 1,34,35
 97 454 97 454 97 434 c 256,36,37
 97 414 97 414 97 411 c 0,38,39
 97 409 97 409 97.5 419 c 128,-1,40
 98 429 98 429 98 442 c 0,41,42
 98 456 98 456 98 467 c 0,43,44
 98 479 98 479 98.5 478.5 c 128,-1,45
 99 478 99 478 99.5 460.5 c 128,-1,46
 100 443 100 443 100 400 c 1,47,-1
 500 400 l 1,48,-1
 500 500 l 1,49,-1
 97 501 l 1,34,35
EndSplineSet
EndChar
StartChar: S
Encoding: 83 83 20
Width: 722
Flags: W
Validated: 5
Fore
311.073 169.5 m 21,0,-1
 79.9688 473.381 l 5,1,-1
 0 413.34 l 5,2,-1
 247.646 83.5 l 5,3,-1
 311.073 169.5 l 21,0,-1
541.573 474.98 m 5,4,-1
 247.646 83.5 l 5,5,-1
 310.573 0 l 5,6,-1
 621.542 414.938 l 5,7,-1
 541.573 474.98 l 5,4,-1
EndSplineSet
EndChar
StartChar: T
Encoding: 84 84 21
Width: 505
Flags: W
Validated: 9
Fore
331.349 322.921 m 21,0,-1
 120.348 533.922 l 29,1,-1
 46.6953 460 l 29,2,-1
 257.694 248.999 l 21,3,-1
 45.3477 36.2266 l 13,4,-1
 119 -37.6953 l 29,5,-1
 405 249 l 29,6,-1
 331.349 322.921 l 21,0,-1
EndSplineSet
EndChar
StartChar: U
Encoding: 85 85 22
Width: 505
Flags: W
Validated: 1
Fore
118.651 322.921 m 21,0,-1
 329.652 533.922 l 29,1,-1
 403.305 460 l 29,2,-1
 192.306 248.999 l 21,3,-1
 404.652 36.2266 l 13,4,-1
 331 -37.6953 l 29,5,-1
 45 249 l 29,6,-1
 118.651 322.921 l 21,0,-1
EndSplineSet
EndChar
StartChar: V
Encoding: 86 86 23
Width: 730
Flags: W
Validated: 5
Fore
327 332.5 m 21,0,-1
 95.8955 28.6191 l 5,1,-1
 15.9268 88.6602 l 5,2,-1
 263.573 418.5 l 5,3,-1
 327 332.5 l 21,0,-1
557.5 27.0195 m 5,4,-1
 263.573 418.5 l 5,5,-1
 326.5 502 l 5,6,-1
 637.469 87.0615 l 5,7,-1
 557.5 27.0195 l 5,4,-1
EndSplineSet
EndChar
StartChar: W
Encoding: 87 87 24
Width: 721
Flags: W
Validated: 37
Fore
312.5 455 m 156,-1,1
 377.967 452.001 377.967 452.001 377.512 388.001 c 28,2,3
 376.979 313.003 376.979 313.003 311.512 316.001 c 156,-1,4
 245.979 319.003 245.979 319.003 246.512 394.001 c 28,5,0
 246.967 458.002 246.967 458.002 312.5 455 c 156,-1,1
311.073 169.5 m 21,6,-1
 79.9688 473.381 l 5,7,-1
 0 413.34 l 5,8,-1
 247.646 83.5 l 5,9,-1
 311.073 169.5 l 21,6,-1
541.573 474.98 m 5,10,-1
 247.646 83.5 l 5,11,-1
 310.573 0 l 5,12,-1
 621.542 414.938 l 5,13,-1
 541.573 474.98 l 5,10,-1
EndSplineSet
EndChar
StartChar: X
Encoding: 88 88 25
Width: 505
Flags: W
Validated: 41
Fore
65.9883 309.999 m 156,-1,1
 131.455 307 131.455 307 131 243 c 28,2,3
 130.467 168.002 130.467 168.002 65 171 c 156,-1,4
 -0.533203 174.002 -0.533203 174.002 -0 249 c 28,5,0
 0.455078 313.001 0.455078 313.001 65.9883 309.999 c 156,-1,1
331.349 322.921 m 21,6,-1
 120.348 533.922 l 29,7,-1
 46.6953 460 l 29,8,-1
 257.694 248.999 l 21,9,-1
 45.3477 36.2266 l 13,10,-1
 119 -37.6953 l 29,11,-1
 405 249 l 29,12,-1
 331.349 322.921 l 21,6,-1
EndSplineSet
EndChar
StartChar: Y
Encoding: 89 89 26
Width: 505
Flags: W
Validated: 33
Fore
402.988 315.999 m 156,-1,1
 468.455 313 468.455 313 468 249 c 28,2,3
 467.467 174.002 467.467 174.002 402 177 c 156,-1,4
 336.467 180.002 336.467 180.002 337 255 c 28,5,0
 337.455 319.001 337.455 319.001 402.988 315.999 c 156,-1,1
118.651 322.921 m 21,6,-1
 329.652 533.922 l 29,7,-1
 403.305 460 l 29,8,-1
 192.306 248.999 l 21,9,-1
 404.652 36.2266 l 13,10,-1
 331 -37.6953 l 29,11,-1
 45 249 l 29,12,-1
 118.651 322.921 l 21,6,-1
EndSplineSet
EndChar
StartChar: Z
Encoding: 90 90 27
Width: 722
Flags: W
Validated: 37
Fore
312.5 144.98 m 156,-1,1
 377.967 141.981 377.967 141.981 377.512 77.9814 c 28,2,3
 376.979 2.9834 376.979 2.9834 311.512 5.98145 c 156,-1,4
 245.979 8.9834 245.979 8.9834 246.512 83.9814 c 28,5,0
 246.967 147.982 246.967 147.982 312.5 144.98 c 156,-1,1
311.073 335.48 m 21,6,-1
 79.9688 31.5996 l 5,7,-1
 -0 91.6406 l 5,8,-1
 247.646 421.48 l 5,9,-1
 311.073 335.48 l 21,6,-1
541.573 30 m 5,10,-1
 247.646 421.48 l 5,11,-1
 310.573 504.98 l 5,12,-1
 621.542 90.042 l 5,13,-1
 541.573 30 l 5,10,-1
EndSplineSet
EndChar
StartChar: a
Encoding: 97 97 28
Width: 552
Flags: W
Validated: 5
Fore
402 500 m 1,0,-1
 402 0 l 1,1,-1
 502 0 l 1,2,-1
 502 500 l 1,3,-1
 402 500 l 1,0,-1
2 100 m 1,4,-1
 2 0 l 1,5,-1
 402 0 l 1,6,-1
 402 100 l 1,7,-1
 2 100 l 1,4,-1
EndSplineSet
EndChar
StartChar: b
Encoding: 98 98 29
Width: 549
Flags: W
Validated: 5
Fore
399 503 m 1,0,-1
 399 3 l 1,1,-1
 499 3 l 1,2,-1
 499 503 l 1,3,-1
 399 503 l 1,0,-1
1 502 m 1,4,-1
 1 2 l 1,5,-1
 101 2 l 1,6,-1
 101 502 l 1,7,-1
 1 502 l 1,4,-1
99 103 m 1,8,-1
 99 3 l 1,9,-1
 399 3 l 1,10,-1
 399 103 l 1,11,-1
 99 103 l 1,8,-1
EndSplineSet
EndChar
StartChar: c
Encoding: 99 99 30
Width: 547
Flags: HWO
Fore
-1 502 m 1,2,-1
 -1 2 l 1,3,-1
 99 2 l 1,4,-1
 99 502 l 1,5,-1
 -1 502 l 1,2,-1
97 103 m 1,6,-1
 97 3 l 1,7,-1
 497 3 l 1,8,-1
 497 103 l 1,9,-1
 97 103 l 1,6,-1
EndSplineSet
EndChar
StartChar: d
Encoding: 100 100 31
Width: 551
Flags: W
Validated: 5
Fore
401 500 m 1,0,-1
 401 0 l 1,1,-1
 501 0 l 1,2,-1
 501 500 l 1,3,-1
 401 500 l 1,0,-1
1 500 m 1,4,-1
 1 400 l 1,5,-1
 501 400 l 1,6,-1
 501 500 l 1,7,-1
 1 500 l 1,4,-1
1 100 m 1,8,-1
 1 0 l 1,9,-1
 401 0 l 1,10,-1
 401 100 l 1,11,-1
 1 100 l 1,8,-1
EndSplineSet
EndChar
StartChar: e
Encoding: 101 101 32
Width: 552
Flags: W
Validated: 37
Fore
402 500 m 1,0,-1
 402 0 l 1,1,-1
 502 0 l 1,2,-1
 502 500 l 1,3,-1
 402 500 l 1,0,-1
4 499 m 1,4,-1
 4 -1 l 1,5,-1
 104 -1 l 1,6,-1
 104 499 l 1,7,-1
 4 499 l 1,4,-1
102 100 m 1,8,-1
 102 0 l 1,9,-1
 402 0 l 1,10,11
 402 43 402 43 402 59 c 256,12,13
 402 75 402 75 402 76 c 1,14,15
 402 64 l 2,16,17
 402 53 402 53 401.5 40 c 128,-1,18
 401 27 401 27 401 16 c 0,19,20
 401 6 401 6 401 8 c 0,21,22
 401 11 401 11 401 31 c 0,23,24
 401 52 401 52 401 99 c 1,25,-1
 102 100 l 1,8,-1
104 498 m 1,26,-1
 104 398 l 1,27,-1
 404 398 l 1,28,29
 404 441 404 441 404 457 c 256,30,31
 404 473 404 473 404 474 c 1,32,33
 404 462 l 2,34,35
 404 451 404 451 403.5 438 c 128,-1,36
 403 425 403 425 403 414 c 0,37,38
 403 404 403 404 403 406 c 0,39,40
 403 409 403 409 403 429 c 0,41,42
 403 450 403 450 403 497 c 1,43,-1
 104 498 l 1,26,-1
EndSplineSet
EndChar
StartChar: f
Encoding: 102 102 33
Width: 550
Flags: W
Validated: 37
Fore
2 501 m 1,0,1
 2 438 2 438 2.5 392.5 c 128,-1,2
 3 347 3 347 3 311 c 256,3,4
 3 275 3 275 3 243 c 0,5,6
 3 212 3 212 3 177 c 0,7,8
 3 143 3 143 2.5 101 c 128,-1,9
 2 59 2 59 2 1 c 1,10,-1
 102 1 l 1,11,12
 99 69 99 69 98.5 123 c 128,-1,13
 98 177 98 177 98.5 232 c 128,-1,14
 99 287 99 287 100 350.5 c 128,-1,15
 101 414 101 414 102 501 c 1,16,-1
 2 501 l 1,0,1
100 501 m 1,17,-1
 100 401 l 1,18,-1
 500 401 l 1,19,-1
 500 501 l 1,20,-1
 100 501 l 1,17,-1
100 100 m 1,21,-1
 100 1 l 1,22,23
 105 1 105 1 135 1 c 0,24,25
 166 1 166 1 208 1 c 0,26,27
 251 1 251 1 300 0.5 c 128,-1,28
 349 0 349 0 391 0 c 0,29,30
 434 0 434 0 464 0 c 0,31,32
 495 0 495 0 500 0 c 1,33,-1
 500 100 l 1,34,-1
 100 100 l 1,21,-1
EndSplineSet
EndChar
StartChar: g
Encoding: 103 103 34
Width: 552
Flags: W
Validated: 5
Fore
402 499 m 1,0,-1
 402 -1 l 1,1,-1
 502 -1 l 1,2,-1
 502 499 l 1,3,-1
 402 499 l 1,0,-1
4 497 m 1,4,-1
 4 397 l 1,5,6
 9 397 9 397 39 397.5 c 128,-1,7
 69 398 69 398 111 398 c 0,8,9
 154 398 154 398 203 398 c 256,10,11
 252 398 252 398 294 398 c 0,12,13
 337 398 337 398 367.5 397.5 c 128,-1,14
 398 397 398 397 404 397 c 1,15,-1
 404 497 l 1,16,-1
 4 497 l 1,4,-1
EndSplineSet
EndChar
StartChar: h
Encoding: 104 104 35
Width: 549
Flags: W
Validated: 37
Fore
399 498 m 1,0,-1
 399 -2 l 1,1,-1
 499 -2 l 1,2,-1
 499 498 l 1,3,-1
 399 498 l 1,0,-1
1 497 m 1,4,-1
 1 -3 l 1,5,-1
 101 -3 l 1,6,-1
 101 497 l 1,7,-1
 1 497 l 1,4,-1
102 494 m 1,8,9
 102 447 102 447 102 427 c 256,10,11
 102 407 102 407 102 404 c 0,12,13
 102 402 102 402 102.5 412.5 c 128,-1,14
 103 423 103 423 103 436 c 0,15,16
 103 450 103 450 103.5 461.5 c 0,17,18
 104 472 104 472 104 473 c 1,19,-1
 104 456 l 2,20,21
 104 439 104 439 104 396 c 1,22,-1
 404 396 l 1,23,-1
 404 496 l 1,24,-1
 102 494 l 1,8,9
EndSplineSet
EndChar
StartChar: i
Encoding: 105 105 36
Width: 550
Flags: W
Validated: 37
Fore
-1 501 m 1,0,1
 -1 436 -1 436 -1 387 c 256,2,3
 -1 338 -1 338 -0.5 298 c 128,-1,4
 0 258 0 258 0 224 c 256,5,6
 0 190 0 190 -0.5 155 c 128,-1,7
 -1 120 -1 120 -1 82 c 256,8,9
 -1 44 -1 44 -2 -4 c 1,10,11
 8 -2 8 -2 21.5 -1.5 c 128,-1,12
 35 -1 35 -1 49 -1 c 256,13,14
 63 -1 63 -1 76 -1.5 c 128,-1,15
 89 -2 89 -2 97 -2 c 1,16,17
 97 55 97 55 97 96 c 0,18,19
 97 138 97 138 97 173 c 256,20,21
 97 208 97 208 97.5 240 c 128,-1,22
 98 272 98 272 98 309 c 256,23,24
 98 346 98 346 98 392 c 256,25,26
 98 438 98 438 98 501 c 1,27,-1
 -1 501 l 1,0,1
97 498 m 1,28,29
 97 451 97 451 97 431 c 256,30,31
 97 411 97 411 97 408 c 0,32,33
 97 406 97 406 97.5 416 c 128,-1,34
 98 426 98 426 98 439 c 0,35,36
 98 453 98 453 98 464 c 0,37,38
 98 476 98 476 98.5 475.5 c 128,-1,39
 99 475 99 475 99.5 457.5 c 128,-1,40
 100 440 100 440 100 397 c 1,41,42
 105 397 105 397 135 397 c 0,43,44
 166 397 166 397 208.5 397.5 c 128,-1,45
 251 398 251 398 300 398.5 c 128,-1,46
 349 399 349 399 391.5 399.5 c 128,-1,47
 434 400 434 400 464 400 c 0,48,49
 495 400 495 400 500 400 c 1,50,-1
 500 500 l 1,51,-1
 97 498 l 1,28,29
EndSplineSet
EndChar
StartChar: j
Encoding: 106 106 37
Width: 550
Flags: W
Validated: 37
Fore
263.988 311.999 m 156,-1,1
 329.455 309 329.455 309 329 245 c 28,2,3
 328.467 170.002 328.467 170.002 263 173 c 156,-1,4
 197.467 176.002 197.467 176.002 198 251 c 28,5,0
 198.455 315.001 198.455 315.001 263.988 311.999 c 156,-1,1
400 500 m 1,6,-1
 400 0 l 1,7,-1
 500 0 l 1,8,-1
 500 500 l 1,9,-1
 400 500 l 1,6,-1
0 100 m 1,10,-1
 0 0 l 1,11,-1
 400 0 l 1,12,-1
 400 100 l 1,13,-1
 0 100 l 1,10,-1
EndSplineSet
EndChar
StartChar: k
Encoding: 107 107 38
Width: 549
Flags: W
Validated: 37
Fore
263.988 311.999 m 156,-1,1
 329.455 309 329.455 309 329 245 c 28,2,3
 328.467 170.002 328.467 170.002 263 173 c 156,-1,4
 197.467 176.002 197.467 176.002 198 251 c 28,5,0
 198.455 315.001 198.455 315.001 263.988 311.999 c 156,-1,1
399 500 m 1,6,-1
 399 0 l 1,7,-1
 499 0 l 1,8,-1
 499 500 l 1,9,-1
 399 500 l 1,6,-1
1 499 m 1,10,-1
 1 -1 l 1,11,-1
 101 -1 l 1,12,-1
 101 499 l 1,13,-1
 1 499 l 1,10,-1
99 100 m 1,14,-1
 99 0 l 1,15,-1
 399 0 l 1,16,-1
 399 100 l 1,17,-1
 99 100 l 1,14,-1
EndSplineSet
EndChar
StartChar: l
Encoding: 108 108 39
Width: 548
Flags: W
Validated: 37
Fore
263.988 311.999 m 156,-1,1
 329.455 309 329.455 309 329 245 c 28,2,3
 328.467 170.002 328.467 170.002 263 173 c 156,-1,4
 197.467 176.002 197.467 176.002 198 251 c 28,5,0
 198.455 315.001 198.455 315.001 263.988 311.999 c 156,-1,1
1 496 m 1,6,-1
 1 -4 l 1,7,-1
 101 -4 l 1,8,-1
 101 496 l 1,9,-1
 1 496 l 1,6,-1
99 97 m 1,10,-1
 99 -3 l 1,11,-1
 498 -3 l 1,12,-1
 498 97 l 1,13,-1
 99 97 l 1,10,-1
EndSplineSet
EndChar
StartChar: m
Encoding: 109 109 40
Width: 550
Flags: W
Validated: 37
Fore
263.988 311.999 m 156,-1,1
 329.455 309 329.455 309 329 245 c 28,2,3
 328.467 170.002 328.467 170.002 263 173 c 156,-1,4
 197.467 176.002 197.467 176.002 198 251 c 28,5,0
 198.455 315.001 198.455 315.001 263.988 311.999 c 156,-1,1
401 500 m 1,6,-1
 401 0 l 1,7,-1
 501 0 l 1,8,-1
 501 500 l 1,9,-1
 401 500 l 1,6,-1
1 500 m 1,10,-1
 1 400 l 1,11,-1
 501 400 l 1,12,-1
 501 500 l 1,13,-1
 1 500 l 1,10,-1
1 100 m 1,14,-1
 1 0 l 1,15,-1
 401 0 l 1,16,-1
 401 100 l 1,17,-1
 1 100 l 1,14,-1
EndSplineSet
EndChar
StartChar: n
Encoding: 110 110 41
Width: 547
Flags: W
Validated: 37
Fore
263.988 311.999 m 156,-1,1
 329.455 309 329.455 309 329 245 c 28,2,3
 328.467 170.002 328.467 170.002 263 173 c 156,-1,4
 197.467 176.002 197.467 176.002 198 251 c 28,5,0
 198.455 315.001 198.455 315.001 263.988 311.999 c 156,-1,1
397 500 m 1,6,-1
 397 0 l 1,7,-1
 497 0 l 1,8,-1
 497 500 l 1,9,-1
 397 500 l 1,6,-1
-1 499 m 1,10,-1
 -1 -1 l 1,11,-1
 99 -1 l 1,12,-1
 99 499 l 1,13,-1
 -1 499 l 1,10,-1
97 100 m 1,14,-1
 97 0 l 1,15,-1
 397 0 l 1,16,17
 397 43 397 43 397 59 c 256,18,19
 397 75 397 75 397 76 c 1,20,-1
 397 64 l 2,21,22
 397 53 397 53 396.5 40 c 128,-1,23
 396 27 396 27 396 16 c 0,24,25
 396 6 396 6 396 8 c 0,26,27
 396 11 396 11 396 31 c 0,28,29
 396 52 396 52 396 99 c 1,30,-1
 97 100 l 1,14,-1
99 498 m 1,31,-1
 99 398 l 1,32,-1
 399 398 l 1,33,34
 399 441 399 441 399 457 c 256,35,36
 399 473 399 473 399 474 c 1,37,-1
 399 462 l 2,38,39
 399 451 399 451 398.5 438 c 128,-1,40
 398 425 398 425 398 414 c 0,41,42
 398 404 398 404 398 406 c 0,43,44
 398 409 398 409 398 429 c 0,45,46
 398 450 398 450 398 497 c 1,47,-1
 99 498 l 1,31,-1
EndSplineSet
EndChar
StartChar: o
Encoding: 111 111 42
Width: 552
Flags: W
Validated: 37
Fore
263.988 311.999 m 156,-1,1
 329.455 309 329.455 309 329 245 c 28,2,3
 328.467 170.002 328.467 170.002 263 173 c 156,-1,4
 197.467 176.002 197.467 176.002 198 251 c 28,5,0
 198.455 315.001 198.455 315.001 263.988 311.999 c 156,-1,1
3 501 m 1,6,7
 3 438 3 438 3.5 392.5 c 128,-1,8
 4 347 4 347 4 311 c 256,9,10
 4 275 4 275 4 243 c 0,11,12
 4 212 4 212 4 177 c 0,13,14
 4 143 4 143 3.5 101 c 128,-1,15
 3 59 3 59 3 1 c 1,16,-1
 103 1 l 1,17,18
 100 69 100 69 99.5 123 c 128,-1,19
 99 177 99 177 99.5 232 c 128,-1,20
 100 287 100 287 101 350.5 c 128,-1,21
 102 414 102 414 103 501 c 1,22,-1
 3 501 l 1,6,7
101 501 m 1,23,-1
 101 401 l 1,24,-1
 501 401 l 1,25,-1
 501 501 l 1,26,-1
 101 501 l 1,23,-1
101 100 m 1,27,-1
 101 1 l 1,28,29
 106 1 106 1 136 1 c 0,30,31
 167 1 167 1 209 1 c 0,32,33
 252 1 252 1 301 0.5 c 128,-1,34
 350 0 350 0 392 0 c 0,35,36
 435 0 435 0 465 0 c 0,37,38
 496 0 496 0 501 0 c 1,39,-1
 501 100 l 1,40,-1
 101 100 l 1,27,-1
EndSplineSet
EndChar
StartChar: p
Encoding: 112 112 43
Width: 550
Flags: W
Validated: 37
Fore
263.988 311.999 m 156,-1,1
 329.455 309 329.455 309 329 245 c 28,2,3
 328.467 170.002 328.467 170.002 263 173 c 156,-1,4
 197.467 176.002 197.467 176.002 198 251 c 28,5,0
 198.455 315.001 198.455 315.001 263.988 311.999 c 156,-1,1
400 500 m 1,6,-1
 400 0 l 1,7,-1
 500 0 l 1,8,-1
 500 500 l 1,9,-1
 400 500 l 1,6,-1
2 498 m 1,10,-1
 2 398 l 1,11,12
 7 398 7 398 37 398.5 c 128,-1,13
 67 399 67 399 109 399 c 0,14,15
 152 399 152 399 201 399 c 256,16,17
 250 399 250 399 292 399 c 0,18,19
 335 399 335 399 365.5 398.5 c 128,-1,20
 396 398 396 398 402 398 c 1,21,-1
 402 498 l 1,22,-1
 2 498 l 1,10,-1
EndSplineSet
EndChar
StartChar: q
Encoding: 113 113 44
Width: 546
Flags: W
Validated: 37
Fore
263.988 311.999 m 156,-1,1
 329.455 309 329.455 309 329 245 c 28,2,3
 328.467 170.002 328.467 170.002 263 173 c 156,-1,4
 197.467 176.002 197.467 176.002 198 251 c 28,5,0
 198.455 315.001 198.455 315.001 263.988 311.999 c 156,-1,1
397 493 m 1,6,7
 397 430 397 430 397 384 c 0,8,9
 397 339 397 339 397 303 c 0,10,11
 397 268 397 268 396.5 237.5 c 128,-1,12
 396 207 396 207 396 173 c 256,13,14
 396 139 396 139 396 97 c 0,15,16
 396 56 396 56 396 -1 c 1,17,-1
 496 -1 l 1,18,-1
 496 499 l 1,19,-1
 397 493 l 1,6,7
-2 498 m 1,20,-1
 -2 -2 l 1,21,-1
 98 -2 l 1,22,23
 98 55 98 55 98 96 c 256,24,25
 98 137 98 137 98 171 c 256,26,27
 98 205 98 205 97.5 236 c 128,-1,28
 97 267 97 267 97 303 c 256,29,30
 97 339 97 339 97 384 c 0,31,32
 97 430 97 430 97 493 c 1,33,-1
 -2 498 l 1,20,-1
99 495 m 1,34,35
 99 448 99 448 99 428 c 256,36,37
 99 408 99 408 99 405 c 0,38,39
 99 403 99 403 99.5 413.5 c 128,-1,40
 100 424 100 424 100 437 c 0,41,42
 100 451 100 451 100.5 462.5 c 0,43,44
 101 473 101 473 101 474 c 1,45,-1
 101 457 l 2,46,47
 101 440 101 440 101 397 c 1,48,-1
 401 397 l 1,49,50
 401 440 401 440 401 456 c 256,51,52
 401 472 401 472 401 473 c 1,53,54
 402 473 402 473 402.5 461.5 c 128,-1,55
 403 450 403 450 403.5 437 c 128,-1,56
 404 424 404 424 404.5 414 c 128,-1,57
 405 404 405 404 405.5 406.5 c 128,-1,58
 406 409 406 409 406 429 c 0,59,60
 406 450 406 450 406 497 c 1,61,-1
 99 495 l 1,34,35
EndSplineSet
EndChar
StartChar: r
Encoding: 114 114 45
Width: 552
Flags: W
Validated: 37
Fore
263.988 311.999 m 156,-1,1
 329.455 309 329.455 309 329 245 c 28,2,3
 328.467 170.002 328.467 170.002 263 173 c 156,-1,4
 197.467 176.002 197.467 176.002 198 251 c 28,5,0
 198.455 315.001 198.455 315.001 263.988 311.999 c 156,-1,1
2 505 m 1,6,7
 2 440 2 440 2 391 c 256,8,9
 2 342 2 342 2.5 302 c 128,-1,10
 3 262 3 262 3 228 c 256,11,12
 3 194 3 194 2.5 159 c 128,-1,13
 2 124 2 124 2 86 c 256,14,15
 2 48 2 48 1 0 c 1,16,17
 11 2 11 2 24.5 2.5 c 128,-1,18
 38 3 38 3 52 3 c 256,19,20
 66 3 66 3 79 2.5 c 128,-1,21
 92 2 92 2 100 2 c 1,22,23
 100 59 100 59 100 100 c 0,24,25
 100 142 100 142 100 177 c 256,26,27
 100 212 100 212 100.5 244 c 128,-1,28
 101 276 101 276 101 313 c 256,29,30
 101 350 101 350 101 396 c 256,31,32
 101 442 101 442 101 505 c 1,33,-1
 2 505 l 1,6,7
100 502 m 1,34,35
 100 455 100 455 100 435 c 256,36,37
 100 415 100 415 100 412 c 0,38,39
 100 410 100 410 100.5 420 c 128,-1,40
 101 430 101 430 101 443 c 0,41,42
 101 457 101 457 101 468 c 0,43,44
 101 480 101 480 101.5 479.5 c 128,-1,45
 102 479 102 479 102.5 461.5 c 128,-1,46
 103 444 103 444 103 401 c 1,47,-1
 503 401 l 1,48,-1
 503 501 l 1,49,-1
 100 502 l 1,34,35
EndSplineSet
EndChar
StartChar: s
Encoding: 115 115 46
Width: 672
Flags: W
Validated: 5
Fore
311.073 169.5 m 17,0,-1
 79.9688 473.381 l 1,1,-1
 0 413.34 l 1,2,-1
 247.646 83.5 l 1,3,-1
 311.073 169.5 l 17,0,-1
541.573 474.98 m 1,4,-1
 247.646 83.5 l 1,5,-1
 310.573 0 l 1,6,-1
 621.542 414.938 l 1,7,-1
 541.573 474.98 l 1,4,-1
EndSplineSet
EndChar
StartChar: t
Encoding: 116 116 47
Width: 455
Flags: W
Validated: 9
Fore
331.349 322.921 m 17,0,-1
 120.348 533.922 l 25,1,-1
 46.6953 460 l 25,2,-1
 257.694 248.999 l 17,3,-1
 45.3477 36.2266 l 9,4,-1
 119 -37.6953 l 25,5,-1
 405 249 l 25,6,-1
 331.349 322.921 l 17,0,-1
EndSplineSet
EndChar
StartChar: u
Encoding: 117 117 48
Width: 455
Flags: W
Validated: 1
Fore
118.651 322.921 m 17,0,-1
 329.652 533.922 l 25,1,-1
 403.305 460 l 25,2,-1
 192.306 248.999 l 17,3,-1
 404.652 36.2266 l 9,4,-1
 331 -37.6953 l 25,5,-1
 45 249 l 25,6,-1
 118.651 322.921 l 17,0,-1
EndSplineSet
EndChar
StartChar: v
Encoding: 118 118 49
Width: 688
Flags: W
Validated: 5
Fore
327 332.5 m 17,0,-1
 95.8955 28.6191 l 1,1,-1
 15.9268 88.6602 l 1,2,-1
 263.573 418.5 l 1,3,-1
 327 332.5 l 17,0,-1
557.5 27.0195 m 1,4,-1
 263.573 418.5 l 1,5,-1
 326.5 502 l 1,6,-1
 637.469 87.0615 l 1,7,-1
 557.5 27.0195 l 1,4,-1
EndSplineSet
EndChar
StartChar: w
Encoding: 119 119 50
Width: 671
Flags: W
Validated: 37
Fore
312.5 455 m 152,-1,1
 377.967 452.001 377.967 452.001 377.512 388.001 c 24,2,3
 376.979 313.003 376.979 313.003 311.512 316.001 c 152,-1,4
 245.979 319.003 245.979 319.003 246.512 394.001 c 24,5,0
 246.967 458.002 246.967 458.002 312.5 455 c 152,-1,1
311.073 169.5 m 17,6,-1
 79.9688 473.381 l 1,7,-1
 0 413.34 l 1,8,-1
 247.646 83.5 l 1,9,-1
 311.073 169.5 l 17,6,-1
541.573 474.98 m 1,10,-1
 247.646 83.5 l 1,11,-1
 310.573 0 l 1,12,-1
 621.542 414.938 l 1,13,-1
 541.573 474.98 l 1,10,-1
EndSplineSet
EndChar
StartChar: x
Encoding: 120 120 51
Width: 455
Flags: W
Validated: 41
Fore
65.9883 309.999 m 152,-1,1
 131.455 307 131.455 307 131 243 c 24,2,3
 130.467 168.002 130.467 168.002 65 171 c 152,-1,4
 -0.533203 174.002 -0.533203 174.002 -0 249 c 24,5,0
 0.455078 313.001 0.455078 313.001 65.9883 309.999 c 152,-1,1
331.349 322.921 m 17,6,-1
 120.348 533.922 l 25,7,-1
 46.6953 460 l 25,8,-1
 257.694 248.999 l 17,9,-1
 45.3477 36.2266 l 9,10,-1
 119 -37.6953 l 25,11,-1
 405 249 l 25,12,-1
 331.349 322.921 l 17,6,-1
EndSplineSet
EndChar
StartChar: y
Encoding: 121 121 52
Width: 518
Flags: W
Validated: 33
Fore
402.988 315.999 m 152,-1,1
 468.455 313 468.455 313 468 249 c 24,2,3
 467.467 174.002 467.467 174.002 402 177 c 152,-1,4
 336.467 180.002 336.467 180.002 337 255 c 24,5,0
 337.455 319.001 337.455 319.001 402.988 315.999 c 152,-1,1
118.651 322.921 m 17,6,-1
 329.652 533.922 l 25,7,-1
 403.305 460 l 25,8,-1
 192.306 248.999 l 17,9,-1
 404.652 36.2266 l 9,10,-1
 331 -37.6953 l 25,11,-1
 45 249 l 25,12,-1
 118.651 322.921 l 17,6,-1
EndSplineSet
EndChar
StartChar: z
Encoding: 122 122 53
Width: 673
Flags: W
Validated: 37
Fore
312.5 144.98 m 152,-1,1
 377.967 141.981 377.967 141.981 377.512 77.9814 c 24,2,3
 376.979 2.9834 376.979 2.9834 311.512 5.98145 c 152,-1,4
 245.979 8.9834 245.979 8.9834 246.512 83.9814 c 24,5,0
 246.967 147.982 246.967 147.982 312.5 144.98 c 152,-1,1
311.073 335.48 m 17,6,-1
 79.9688 31.5996 l 1,7,-1
 -0 91.6406 l 1,8,-1
 247.646 421.48 l 1,9,-1
 311.073 335.48 l 17,6,-1
541.573 30 m 1,10,-1
 247.646 421.48 l 1,11,-1
 310.573 504.98 l 1,12,-1
 621.542 90.042 l 1,13,-1
 541.573 30 l 1,10,-1
EndSplineSet
EndChar
